<mxfile host="Electron" agent="Mozilla/5.0 (X11; Linux x86_64) AppleWebKit/537.36 (KHTML, like Gecko) draw.io/26.0.4 Chrome/128.0.6613.186 Electron/32.2.5 Safari/537.36" version="26.0.4">
  <diagram name="Page-1" id="XhNmkRfVN61GfBsGaXkP">
    <mxGraphModel dx="1006" dy="998" grid="1" gridSize="10" guides="1" tooltips="1" connect="1" arrows="1" fold="1" page="1" pageScale="1" pageWidth="850" pageHeight="1100" math="0" shadow="0">
      <root>
        <mxCell id="0" />
        <mxCell id="1" parent="0" />
        <mxCell id="9utkYaS9pg7W4f2NSXvA-34" value="Corporate data center" style="points=[[0,0],[0.25,0],[0.5,0],[0.75,0],[1,0],[1,0.25],[1,0.5],[1,0.75],[1,1],[0.75,1],[0.5,1],[0.25,1],[0,1],[0,0.75],[0,0.5],[0,0.25]];outlineConnect=0;gradientColor=none;html=1;whiteSpace=wrap;fontSize=12;fontStyle=0;container=1;pointerEvents=0;collapsible=0;recursiveResize=0;shape=mxgraph.aws4.group;grIcon=mxgraph.aws4.group_corporate_data_center;strokeColor=#7D8998;fillColor=none;verticalAlign=top;align=left;spacingLeft=30;fontColor=#5A6C86;dashed=0;" vertex="1" parent="1">
          <mxGeometry x="664" y="330" width="152.5" height="270" as="geometry" />
        </mxCell>
        <mxCell id="9utkYaS9pg7W4f2NSXvA-35" value="Customer&lt;div&gt;router/firewall&lt;/div&gt;" style="sketch=0;outlineConnect=0;fontColor=#232F3E;gradientColor=none;fillColor=#8C4FFF;strokeColor=none;dashed=0;verticalLabelPosition=bottom;verticalAlign=top;align=center;html=1;fontSize=12;fontStyle=0;aspect=fixed;pointerEvents=1;shape=mxgraph.aws4.customer_gateway;" vertex="1" parent="9utkYaS9pg7W4f2NSXvA-34">
          <mxGeometry x="37.25" y="79.5" width="78" height="78" as="geometry" />
        </mxCell>
        <mxCell id="9utkYaS9pg7W4f2NSXvA-36" value="Customer Network" style="text;html=1;align=center;verticalAlign=middle;resizable=0;points=[];autosize=1;strokeColor=none;fillColor=none;fontSize=15;" vertex="1" parent="9utkYaS9pg7W4f2NSXvA-34">
          <mxGeometry x="1.25" y="240" width="150" height="30" as="geometry" />
        </mxCell>
        <mxCell id="9utkYaS9pg7W4f2NSXvA-38" value="" style="endArrow=none;html=1;rounded=0;strokeWidth=3;fillColor=#dae8fc;strokeColor=#6c8ebf;exitX=1.026;exitY=0.385;exitDx=0;exitDy=0;exitPerimeter=0;" edge="1" parent="9utkYaS9pg7W4f2NSXvA-34">
          <mxGeometry width="50" height="50" relative="1" as="geometry">
            <mxPoint x="-52.75" y="110" as="sourcePoint" />
            <mxPoint x="37.25" y="110" as="targetPoint" />
          </mxGeometry>
        </mxCell>
        <mxCell id="9utkYaS9pg7W4f2NSXvA-1" value="VPC" style="points=[[0,0],[0.25,0],[0.5,0],[0.75,0],[1,0],[1,0.25],[1,0.5],[1,0.75],[1,1],[0.75,1],[0.5,1],[0.25,1],[0,1],[0,0.75],[0,0.5],[0,0.25]];outlineConnect=0;gradientColor=none;html=1;whiteSpace=wrap;fontSize=12;fontStyle=0;container=1;pointerEvents=0;collapsible=0;recursiveResize=0;shape=mxgraph.aws4.group;grIcon=mxgraph.aws4.group_vpc2;strokeColor=#8C4FFF;fillColor=none;verticalAlign=top;align=left;spacingLeft=30;fontColor=#AAB7B8;dashed=0;" vertex="1" parent="1">
          <mxGeometry x="64" y="330" width="200" height="210" as="geometry" />
        </mxCell>
        <mxCell id="9utkYaS9pg7W4f2NSXvA-7" value="Private subnet" style="points=[[0,0],[0.25,0],[0.5,0],[0.75,0],[1,0],[1,0.25],[1,0.5],[1,0.75],[1,1],[0.75,1],[0.5,1],[0.25,1],[0,1],[0,0.75],[0,0.5],[0,0.25]];outlineConnect=0;gradientColor=none;html=1;whiteSpace=wrap;fontSize=12;fontStyle=0;container=1;pointerEvents=0;collapsible=0;recursiveResize=0;shape=mxgraph.aws4.group;grIcon=mxgraph.aws4.group_security_group;grStroke=0;strokeColor=#00A4A6;fillColor=#E6F6F7;verticalAlign=top;align=left;spacingLeft=30;fontColor=#147EBA;dashed=0;" vertex="1" parent="9utkYaS9pg7W4f2NSXvA-1">
          <mxGeometry x="20" y="35" width="130" height="165" as="geometry" />
        </mxCell>
        <mxCell id="9utkYaS9pg7W4f2NSXvA-13" value="Region (sa-east-1)" style="points=[[0,0],[0.25,0],[0.5,0],[0.75,0],[1,0],[1,0.25],[1,0.5],[1,0.75],[1,1],[0.75,1],[0.5,1],[0.25,1],[0,1],[0,0.75],[0,0.5],[0,0.25]];outlineConnect=0;gradientColor=none;html=1;whiteSpace=wrap;fontSize=12;fontStyle=0;container=1;pointerEvents=0;collapsible=0;recursiveResize=0;shape=mxgraph.aws4.group;grIcon=mxgraph.aws4.group_region;strokeColor=#00A4A6;fillColor=none;verticalAlign=top;align=left;spacingLeft=30;fontColor=#147EBA;dashed=1;" vertex="1" parent="1">
          <mxGeometry x="34" y="300" width="280" height="370" as="geometry" />
        </mxCell>
        <mxCell id="9utkYaS9pg7W4f2NSXvA-14" value="Virtual Private&lt;div&gt;Gateway&lt;/div&gt;" style="sketch=0;outlineConnect=0;fontColor=#232F3E;gradientColor=none;fillColor=#8C4FFF;strokeColor=none;dashed=0;verticalLabelPosition=bottom;verticalAlign=top;align=center;html=1;fontSize=12;fontStyle=0;aspect=fixed;pointerEvents=1;shape=mxgraph.aws4.vpn_gateway;" vertex="1" parent="9utkYaS9pg7W4f2NSXvA-13">
          <mxGeometry x="190" y="111" width="78" height="78" as="geometry" />
        </mxCell>
        <mxCell id="9utkYaS9pg7W4f2NSXvA-15" value="Amazon Glacier" style="sketch=0;points=[[0,0,0],[0.25,0,0],[0.5,0,0],[0.75,0,0],[1,0,0],[0,1,0],[0.25,1,0],[0.5,1,0],[0.75,1,0],[1,1,0],[0,0.25,0],[0,0.5,0],[0,0.75,0],[1,0.25,0],[1,0.5,0],[1,0.75,0]];outlineConnect=0;fontColor=#232F3E;fillColor=#7AA116;strokeColor=#ffffff;dashed=0;verticalLabelPosition=bottom;verticalAlign=top;align=center;html=1;fontSize=12;fontStyle=0;aspect=fixed;shape=mxgraph.aws4.resourceIcon;resIcon=mxgraph.aws4.glacier;" vertex="1" parent="9utkYaS9pg7W4f2NSXvA-13">
          <mxGeometry x="30" y="260" width="78" height="78" as="geometry" />
        </mxCell>
        <mxCell id="9utkYaS9pg7W4f2NSXvA-16" value="Amazon S3" style="sketch=0;points=[[0,0,0],[0.25,0,0],[0.5,0,0],[0.75,0,0],[1,0,0],[0,1,0],[0.25,1,0],[0.5,1,0],[0.75,1,0],[1,1,0],[0,0.25,0],[0,0.5,0],[0,0.75,0],[1,0.25,0],[1,0.5,0],[1,0.75,0]];outlineConnect=0;fontColor=#232F3E;fillColor=#7AA116;strokeColor=#ffffff;dashed=0;verticalLabelPosition=bottom;verticalAlign=top;align=center;html=1;fontSize=12;fontStyle=0;aspect=fixed;shape=mxgraph.aws4.resourceIcon;resIcon=mxgraph.aws4.s3;" vertex="1" parent="9utkYaS9pg7W4f2NSXvA-13">
          <mxGeometry x="151" y="260" width="78" height="78" as="geometry" />
        </mxCell>
        <mxCell id="9utkYaS9pg7W4f2NSXvA-9" value="EC2 Instances" style="sketch=0;outlineConnect=0;fontColor=#232F3E;gradientColor=none;fillColor=#ED7100;strokeColor=none;dashed=0;verticalLabelPosition=bottom;verticalAlign=top;align=center;html=1;fontSize=12;fontStyle=0;aspect=fixed;pointerEvents=1;shape=mxgraph.aws4.instance2;direction=south;" vertex="1" parent="9utkYaS9pg7W4f2NSXvA-13">
          <mxGeometry x="70" y="110" width="80" height="80" as="geometry" />
        </mxCell>
        <mxCell id="9utkYaS9pg7W4f2NSXvA-17" value="AWS Direct Connect Location" style="rounded=0;whiteSpace=wrap;html=1;dashed=1;fillColor=none;verticalAlign=bottom;fontSize=15;" vertex="1" parent="1">
          <mxGeometry x="344" y="330" width="300" height="270" as="geometry" />
        </mxCell>
        <mxCell id="9utkYaS9pg7W4f2NSXvA-18" value="" style="rounded=0;whiteSpace=wrap;html=1;" vertex="1" parent="1">
          <mxGeometry x="344" y="620" width="300" height="50" as="geometry" />
        </mxCell>
        <mxCell id="9utkYaS9pg7W4f2NSXvA-19" value="Private virtual interface" style="text;html=1;align=left;verticalAlign=middle;resizable=0;points=[];autosize=1;strokeColor=none;fillColor=none;" vertex="1" parent="1">
          <mxGeometry x="464" y="620" width="150" height="30" as="geometry" />
        </mxCell>
        <mxCell id="9utkYaS9pg7W4f2NSXvA-20" value="Public virtual interface" style="text;html=1;align=left;verticalAlign=middle;resizable=0;points=[];autosize=1;strokeColor=none;fillColor=none;" vertex="1" parent="1">
          <mxGeometry x="464" y="640" width="140" height="30" as="geometry" />
        </mxCell>
        <mxCell id="9utkYaS9pg7W4f2NSXvA-21" value="" style="endArrow=none;html=1;rounded=0;strokeWidth=3;fillColor=#dae8fc;strokeColor=#6c8ebf;entryX=0;entryY=0.385;entryDx=0;entryDy=0;entryPerimeter=0;exitX=1.026;exitY=0.385;exitDx=0;exitDy=0;exitPerimeter=0;" edge="1" parent="1" source="9utkYaS9pg7W4f2NSXvA-24" target="9utkYaS9pg7W4f2NSXvA-26">
          <mxGeometry width="50" height="50" relative="1" as="geometry">
            <mxPoint x="455" y="440" as="sourcePoint" />
            <mxPoint x="540" y="440" as="targetPoint" />
          </mxGeometry>
        </mxCell>
        <mxCell id="9utkYaS9pg7W4f2NSXvA-22" value="" style="endArrow=none;html=1;rounded=0;strokeWidth=3;fillColor=#d5e8d4;strokeColor=#82b366;" edge="1" parent="1">
          <mxGeometry width="50" height="50" relative="1" as="geometry">
            <mxPoint x="370" y="654.76" as="sourcePoint" />
            <mxPoint x="455" y="654.76" as="targetPoint" />
          </mxGeometry>
        </mxCell>
        <mxCell id="9utkYaS9pg7W4f2NSXvA-23" value="AWS Cage" style="rounded=0;whiteSpace=wrap;html=1;dashed=1;fillColor=none;verticalAlign=bottom;fontStyle=1" vertex="1" parent="1">
          <mxGeometry x="359" y="400" width="125" height="160" as="geometry" />
        </mxCell>
        <mxCell id="9utkYaS9pg7W4f2NSXvA-24" value="AWS Direct&lt;div&gt;Connect Endpoint&lt;/div&gt;" style="sketch=0;outlineConnect=0;fontColor=#232F3E;gradientColor=none;fillColor=#8C4FFF;strokeColor=none;dashed=0;verticalLabelPosition=bottom;verticalAlign=top;align=center;html=1;fontSize=12;fontStyle=0;aspect=fixed;pointerEvents=1;shape=mxgraph.aws4.customer_gateway;" vertex="1" parent="1">
          <mxGeometry x="384" y="410" width="78" height="78" as="geometry" />
        </mxCell>
        <mxCell id="9utkYaS9pg7W4f2NSXvA-25" value="Customer or&lt;div&gt;partnet cage&lt;/div&gt;" style="rounded=0;whiteSpace=wrap;html=1;dashed=1;fillColor=none;verticalAlign=bottom;fontStyle=1" vertex="1" parent="1">
          <mxGeometry x="509" y="400" width="125" height="160" as="geometry" />
        </mxCell>
        <mxCell id="9utkYaS9pg7W4f2NSXvA-26" value="Customer or&lt;div&gt;partner router&lt;/div&gt;" style="sketch=0;outlineConnect=0;fontColor=#232F3E;gradientColor=none;fillColor=#8C4FFF;strokeColor=none;dashed=0;verticalLabelPosition=bottom;verticalAlign=top;align=center;html=1;fontSize=12;fontStyle=0;aspect=fixed;pointerEvents=1;shape=mxgraph.aws4.customer_gateway;" vertex="1" parent="1">
          <mxGeometry x="534" y="410" width="78" height="78" as="geometry" />
        </mxCell>
        <mxCell id="9utkYaS9pg7W4f2NSXvA-27" value="Direct Connect" style="sketch=0;points=[[0,0,0],[0.25,0,0],[0.5,0,0],[0.75,0,0],[1,0,0],[0,1,0],[0.25,1,0],[0.5,1,0],[0.75,1,0],[1,1,0],[0,0.25,0],[0,0.5,0],[0,0.75,0],[1,0.25,0],[1,0.5,0],[1,0.75,0]];outlineConnect=0;fontColor=#232F3E;fillColor=#8C4FFF;strokeColor=#ffffff;dashed=0;verticalLabelPosition=bottom;verticalAlign=top;align=center;html=1;fontSize=12;fontStyle=0;aspect=fixed;shape=mxgraph.aws4.resourceIcon;resIcon=mxgraph.aws4.direct_connect;" vertex="1" parent="1">
          <mxGeometry x="455" y="290" width="78" height="78" as="geometry" />
        </mxCell>
        <mxCell id="9utkYaS9pg7W4f2NSXvA-28" value="" style="endArrow=none;html=1;rounded=0;strokeWidth=3;fillColor=#d5e8d4;strokeColor=#82b366;" edge="1" parent="1" source="9utkYaS9pg7W4f2NSXvA-24" target="9utkYaS9pg7W4f2NSXvA-26">
          <mxGeometry width="50" height="50" relative="1" as="geometry">
            <mxPoint x="464" y="464.5" as="sourcePoint" />
            <mxPoint x="549" y="464.5" as="targetPoint" />
          </mxGeometry>
        </mxCell>
        <mxCell id="9utkYaS9pg7W4f2NSXvA-29" value="" style="endArrow=classic;html=1;rounded=0;strokeWidth=3;fillColor=#dae8fc;strokeColor=#6c8ebf;startArrow=classic;startFill=1;endFill=1;" edge="1" parent="1">
          <mxGeometry width="50" height="50" relative="1" as="geometry">
            <mxPoint x="302" y="440.5162500000001" as="sourcePoint" />
            <mxPoint x="384" y="440.0037500000001" as="targetPoint" />
          </mxGeometry>
        </mxCell>
        <mxCell id="9utkYaS9pg7W4f2NSXvA-30" value="" style="endArrow=classic;html=1;rounded=0;strokeWidth=3;fillColor=#d5e8d4;strokeColor=#82b366;exitX=1;exitY=0.5;exitDx=0;exitDy=0;exitPerimeter=0;startArrow=classic;startFill=1;endFill=1;" edge="1" parent="1" source="9utkYaS9pg7W4f2NSXvA-16">
          <mxGeometry width="50" height="50" relative="1" as="geometry">
            <mxPoint x="272" y="592" as="sourcePoint" />
            <mxPoint x="393" y="477.4943820224719" as="targetPoint" />
            <Array as="points">
              <mxPoint x="343" y="523" />
            </Array>
          </mxGeometry>
        </mxCell>
        <mxCell id="9utkYaS9pg7W4f2NSXvA-31" value="" style="endArrow=none;html=1;rounded=0;strokeWidth=3;fillColor=#dae8fc;strokeColor=#6c8ebf;" edge="1" parent="1">
          <mxGeometry width="50" height="50" relative="1" as="geometry">
            <mxPoint x="370" y="634.76" as="sourcePoint" />
            <mxPoint x="455" y="634.76" as="targetPoint" />
          </mxGeometry>
        </mxCell>
        <mxCell id="9utkYaS9pg7W4f2NSXvA-37" value="" style="endArrow=none;html=1;rounded=0;strokeWidth=3;fillColor=#d5e8d4;strokeColor=#82b366;" edge="1" parent="1" source="9utkYaS9pg7W4f2NSXvA-26" target="9utkYaS9pg7W4f2NSXvA-35">
          <mxGeometry width="50" height="50" relative="1" as="geometry">
            <mxPoint x="614" y="448.58" as="sourcePoint" />
            <mxPoint x="686" y="448.58" as="targetPoint" />
          </mxGeometry>
        </mxCell>
      </root>
    </mxGraphModel>
  </diagram>
</mxfile>
